# xmcd CD database file
#
# Track frame offsets:
#	150
#	15657
#	31227
#	46285
#	60020
#	80285
#	91037
#	111220
#	128132
#	140440
#
# Disc length: 2120 seconds
#
# Revision: 4
# Processed by: cddbd v1.5.2PL0 Copyright (c) Steve Scherf et al.
# Submitted via: CDex 1.40Release
#
DISCID=6d08460a
DTITLE=Various Artist - Angels Among Us
DYEAR=1998
DGENRE=Country
TTITLE0=Aaron Tippin - My Blue Angel
TTITLE1=Mindy McCready - Ten Thousand Angels
TTITLE2=Diamond Rio - Demons And Angels
TTITLE3=Ricky Van Shelton - Don't Send Me No Angels
TTITLE4=Willie Nelson - Angel Flying Too Close To The Ground
TTITLE5=Patsy Cline - I Can See An Angel Walkin'
TTITLE6=Pure Prarie League - Angel
TTITLE7=Martina McBride - Wild Angels
TTITLE8=Elvis Presley - Fools Rush In
TTITLE9=Alabama - Angels Among Us
EXTD=Shellimark Entertainment - Mobile DJ's\nMarc Taylor\n\nshellimark@hotmail.com YEAR: 1998 ID3G: 2
EXTT0=
EXTT1=
EXTT2=
EXTT3=
EXTT4=
EXTT5=
EXTT6=
EXTT7=
EXTT8=Where Angels Fear To Tread
EXTT9=
PLAYORDER=
